<svg xmlns="http://www.w3.org/2000/svg" width="1960" height="1540" viewBox="0 0 1960 1540" role="img" aria-labelledby="title desc">
  <title id="title">Latest phishing pipeline flow - accuracy first lexical-first hashing</title>
  <desc id="desc">Figma-ready SVG showing the latest pipeline flow: holdout input, lexical-first admission, DNS on lexical survivors, staged fetch with fetched_visual_missing support, stage 1 debug artifacts, stage 2 enrichment and model validation, final hybrid classification, and delivery outputs.</desc>
  <defs>
    <linearGradient id="bgGrad" x1="0" y1="0" x2="1" y2="1">
      <stop offset="0%" stop-color="#f7f4ec"/>
      <stop offset="100%" stop-color="#eef2ea"/>
    </linearGradient>
    <linearGradient id="headerGrad" x1="0" y1="0" x2="1" y2="0">
      <stop offset="0%" stop-color="#173a33"/>
      <stop offset="100%" stop-color="#28584f"/>
    </linearGradient>
    <linearGradient id="stageGradA" x1="0" y1="0" x2="1" y2="0">
      <stop offset="0%" stop-color="#ebe1ca"/>
      <stop offset="100%" stop-color="#f3e8d6"/>
    </linearGradient>
    <linearGradient id="stageGradB" x1="0" y1="0" x2="1" y2="0">
      <stop offset="0%" stop-color="#dfeee5"/>
      <stop offset="100%" stop-color="#ecf7f0"/>
    </linearGradient>
    <linearGradient id="stageGradC" x1="0" y1="0" x2="1" y2="0">
      <stop offset="0%" stop-color="#e5edf5"/>
      <stop offset="100%" stop-color="#eff4fa"/>
    </linearGradient>
    <linearGradient id="stageGradD" x1="0" y1="0" x2="1" y2="0">
      <stop offset="0%" stop-color="#f0e6f2"/>
      <stop offset="100%" stop-color="#f7eff8"/>
    </linearGradient>
    <style>
      .bg { fill: url(#bgGrad); }
      .header { fill: url(#headerGrad); rx: 34; }
      .headerTitle { font: 700 34px 'Segoe UI', Arial, sans-serif; fill: #f6fbf7; }
      .headerSub { font: 400 16px 'Segoe UI', Arial, sans-serif; fill: #dbe9e4; }
      .meta { font: 600 13px 'Segoe UI', Arial, sans-serif; fill: #deeee9; letter-spacing: 0.08em; text-transform: uppercase; }
      .laneA { fill: url(#stageGradA); stroke: #c9b48b; stroke-width: 2.2; rx: 28; }
      .laneB { fill: url(#stageGradB); stroke: #8fb69b; stroke-width: 2.2; rx: 28; }
      .laneC { fill: url(#stageGradC); stroke: #91a9c5; stroke-width: 2.2; rx: 28; }
      .laneD { fill: url(#stageGradD); stroke: #b99ac7; stroke-width: 2.2; rx: 28; }
      .laneTitle { font: 700 24px 'Segoe UI', Arial, sans-serif; fill: #1f2f2b; }
      .laneNote { font: 400 14px 'Segoe UI', Arial, sans-serif; fill: #495c56; }
      .box { fill: #fffdfa; stroke: #2c4740; stroke-width: 2.2; rx: 20; }
      .boxSoft { fill: #f9fbf8; stroke: #59716b; stroke-width: 2; rx: 20; }
      .decision { fill: #fff7e8; stroke: #9f7a2f; stroke-width: 2.2; rx: 20; }
      .debug { fill: #fff3df; stroke: #bb7e1f; stroke-width: 2; rx: 18; }
      .review { fill: #fff0ec; stroke: #bf5a3b; stroke-width: 2; rx: 18; }
      .output { fill: #edf8ef; stroke: #2f7646; stroke-width: 2; rx: 18; }
      .policy { fill: #ecf5ff; stroke: #4b7db4; stroke-width: 2; rx: 18; }
      .chipDark { fill: #173a33; rx: 12; }
      .chipAmber { fill: #9f7a2f; rx: 12; }
      .chipGreen { fill: #2f7646; rx: 12; }
      .chipRed { fill: #bf5a3b; rx: 12; }
      .chipBlue { fill: #4b7db4; rx: 12; }
      .chipText { font: 700 12px 'Segoe UI', Arial, sans-serif; fill: #ffffff; letter-spacing: 0.06em; text-transform: uppercase; }
      .label { font: 700 18px 'Segoe UI', Arial, sans-serif; fill: #193630; }
      .body { font: 400 14px 'Segoe UI', Arial, sans-serif; fill: #324742; }
      .small { font: 400 12px 'Segoe UI', Arial, sans-serif; fill: #536763; }
      .em { font: 700 14px 'Segoe UI', Arial, sans-serif; fill: #173a33; }
      .legend { font: 600 13px 'Segoe UI', Arial, sans-serif; fill: #314440; }
      .arrow { stroke: #254740; stroke-width: 3.2; fill: none; stroke-linecap: round; stroke-linejoin: round; }
      .arrowSoft { stroke: #4b7db4; stroke-width: 2.6; fill: none; stroke-linecap: round; stroke-linejoin: round; stroke-dasharray: 9 8; }
      .arrowReview { stroke: #bf5a3b; stroke-width: 2.8; fill: none; stroke-linecap: round; stroke-linejoin: round; }
      .arrowDebug { stroke: #bb7e1f; stroke-width: 2.6; fill: none; stroke-linecap: round; stroke-linejoin: round; stroke-dasharray: 7 6; }
    </style>
    <marker id="arrowHead" markerWidth="12" markerHeight="12" refX="10" refY="6" orient="auto">
      <path d="M0,0 L12,6 L0,12 z" fill="#254740"/>
    </marker>
    <marker id="arrowHeadSoft" markerWidth="12" markerHeight="12" refX="10" refY="6" orient="auto">
      <path d="M0,0 L12,6 L0,12 z" fill="#4b7db4"/>
    </marker>
    <marker id="arrowHeadReview" markerWidth="12" markerHeight="12" refX="10" refY="6" orient="auto">
      <path d="M0,0 L12,6 L0,12 z" fill="#bf5a3b"/>
    </marker>
    <marker id="arrowHeadDebug" markerWidth="12" markerHeight="12" refX="10" refY="6" orient="auto">
      <path d="M0,0 L12,6 L0,12 z" fill="#bb7e1f"/>
    </marker>
  </defs>

  <rect class="bg" x="0" y="0" width="1960" height="1540"/>

  <rect class="header" x="42" y="32" width="1876" height="118"/>
  <text class="meta" x="76" y="68">Figma-ready SVG / latest implemented flow</text>
  <text class="headerTitle" x="76" y="108">Accuracy-First Lexical-First Phishing Pipeline</text>
  <text class="headerSub" x="76" y="136">Current implementation in comparison.py + pipeline.py: lexical gate first, DNS only on survivors, staged fetch, review-only failures, and fetched_visual_missing safe continuation.</text>

  <rect class="laneA" x="42" y="182" width="1876" height="402"/>
  <text class="laneTitle" x="70" y="222">Stage 0-1: Input, Lexical Gate, DNS Gate, and Hashing Shortlist</text>
  <text class="laneNote" x="70" y="248">Stage 1 is now intentionally narrow: only lexical survivors are allowed to consume DNS and Playwright capacity.</text>

  <rect class="box" x="82" y="286" width="242" height="134"/>
  <rect class="chipDark" x="102" y="304" width="76" height="24"/>
  <text class="chipText" x="117" y="320">Input</text>
  <text class="label" x="102" y="356">Holdout Excel Files</text>
  <text class="body" x="102" y="384">`data/holdout_sets/*.xlsx`</text>
  <text class="body" x="102" y="406">URLs loaded into the hashing</text>
  <text class="body" x="102" y="426">shortlist stream.</text>

  <rect class="box" x="362" y="286" width="282" height="164"/>
  <rect class="chipDark" x="382" y="304" width="110" height="24"/>
  <text class="chipText" x="400" y="320">Prefetch</text>
  <text class="label" x="382" y="356">Lexical Metrics</text>
  <text class="body" x="382" y="384">Old fuzzy shortlist + hybrid lexical</text>
  <text class="body" x="382" y="406">Strict lexical hit</text>
  <text class="body" x="382" y="428">Lexical score pass</text>
  <text class="body" x="382" y="450">Fallback rank tracked, not trusted</text>

  <rect class="decision" x="682" y="286" width="302" height="180"/>
  <rect class="chipAmber" x="702" y="304" width="118" height="24"/>
  <text class="chipText" x="720" y="320">Decision</text>
  <text class="label" x="702" y="356">Lexical Gate</text>
  <text class="body" x="702" y="384">Keep:</text>
  <text class="body" x="760" y="384">`strict_lexical_hit`</text>
  <text class="body" x="702" y="406">Keep:</text>
  <text class="body" x="760" y="406">`lexical_score_pass &amp;&amp; !fallback_rank_only`</text>
  <text class="body" x="702" y="428">Reject:</text>
  <text class="body" x="760" y="428">fallback-only candidates</text>
  <text class="small" x="702" y="454">Rejected rows are audited with `exclusion_stage=lexical_gate`.</text>

  <rect class="box" x="1022" y="286" width="252" height="148"/>
  <rect class="chipDark" x="1042" y="304" width="92" height="24"/>
  <text class="chipText" x="1060" y="320">Network</text>
  <text class="label" x="1042" y="356">DNS Gate</text>
  <text class="body" x="1042" y="384">Runs only on lexical survivors.</text>
  <text class="body" x="1042" y="406">Accept resolvable hosts.</text>
  <text class="body" x="1042" y="428">Rejects go to DNS audit artifacts.</text>

  <rect class="box" x="1312" y="274" width="566" height="214"/>
  <rect class="chipDark" x="1334" y="294" width="144" height="24"/>
  <text class="chipText" x="1352" y="310">Browser Fetch</text>
  <text class="label" x="1334" y="346">Accuracy-First Playwright Stage</text>
  <text class="body" x="1334" y="374">Conservative profile:</text>
  <text class="body" x="1476" y="374">pages=24, page_concurrency=4, http_limit=96</text>
  <text class="body" x="1334" y="396">aux_net_limit=48, nav_timeout=15000 ms</text>
  <text class="body" x="1334" y="418">screenshot_timeout=6000 ms, fetch_timeout=20 s</text>
  <text class="body" x="1334" y="440">Adaptive downshift enabled, active page floor=8</text>
  <text class="small" x="1334" y="468">Goal: stable full HTML capture and lower stage-wide collapse risk, not maximum throughput.</text>

  <rect class="boxSoft" x="102" y="468" width="558" height="92"/>
  <text class="label" x="124" y="502">Stage 1 Policy</text>
  <text class="body" x="124" y="528">Only lexical survivors consume DNS and browser work. This is the main structural fix for the earlier server overload pattern.</text>

  <rect class="box" x="82" y="620" width="414" height="160"/>
  <rect class="chipDark" x="102" y="638" width="100" height="24"/>
  <text class="chipText" x="120" y="654">Fetch A</text>
  <text class="label" x="102" y="690">Navigate and Capture HTML</text>
  <text class="body" x="102" y="718">Navigate with retry-on-transient browser errors.</text>
  <text class="body" x="102" y="740">Capture final landing URL + HTML content.</text>
  <text class="body" x="102" y="762">Run parked-page detection before screenshot work.</text>

  <rect class="box" x="538" y="620" width="414" height="160"/>
  <rect class="chipDark" x="558" y="638" width="100" height="24"/>
  <text class="chipText" x="576" y="654">Fetch B</text>
  <text class="label" x="558" y="690">Screenshot Attempt</text>
  <text class="body" x="558" y="718">`full_page=false` for stability.</text>
  <text class="body" x="558" y="740">If screenshot fails but HTML succeeds:</text>
  <text class="body" x="558" y="762">mark row `fetched_visual_missing`.</text>

  <rect class="decision" x="994" y="620" width="332" height="188"/>
  <rect class="chipAmber" x="1014" y="638" width="110" height="24"/>
  <text class="chipText" x="1032" y="654">State Map</text>
  <text class="label" x="1014" y="690">Fetch Outcomes</text>
  <text class="body" x="1014" y="718">`fetched`</text>
  <text class="body" x="1096" y="718">HTML + screenshot available</text>
  <text class="body" x="1014" y="740">`fetched_visual_missing`</text>
  <text class="body" x="1198" y="740">HTML kept, CLIP skipped</text>
  <text class="body" x="1014" y="762">`failed` / `timeout`</text>
  <text class="body" x="1148" y="762">review-only, no final output</text>
  <text class="body" x="1014" y="784">`parked`</text>
  <text class="body" x="1096" y="784">review-only, excluded from final class</text>

  <rect class="box" x="1368" y="620" width="510" height="188"/>
  <rect class="chipDark" x="1388" y="638" width="124" height="24"/>
  <text class="chipText" x="1406" y="654">Scoring</text>
  <text class="label" x="1388" y="690">CPU Hash + Optional CLIP</text>
  <text class="body" x="1388" y="718">CPU evidence: domain, favicon, SSL, HTML hash, domain hash, keywords</text>
  <text class="body" x="1388" y="740">CLIP screenshot similarity runs only if screenshot bytes exist</text>
  <text class="body" x="1388" y="762">Admit shortlist rows from fetched states only</text>
  <text class="small" x="1388" y="790">Stage 1 result is `holdout.csv` plus review and debug artifacts.</text>

  <rect class="debug" x="82" y="840" width="274" height="132"/>
  <text class="label" x="104" y="876">Stage 1 Debug</text>
  <text class="body" x="104" y="904">`stage1_lexical_debug.csv`</text>
  <text class="body" x="104" y="926">`hashing_shortlist_excluded_urls.csv`</text>
  <text class="body" x="104" y="948">Now shows lexical, DNS, and hash-stage exclusions.</text>

  <rect class="review" x="394" y="840" width="278" height="132"/>
  <text class="label" x="416" y="876">Review Queue</text>
  <text class="body" x="416" y="904">`fetch_failed_lexical_hits.csv`</text>
  <text class="body" x="416" y="926">`parked_page_exclusions.csv`</text>
  <text class="body" x="416" y="948">Review-only, never auto-promoted downstream.</text>

  <rect class="debug" x="710" y="840" width="280" height="132"/>
  <text class="label" x="732" y="876">DNS Audit</text>
  <text class="body" x="732" y="904">`dns_gate_audit.csv`</text>
  <text class="body" x="732" y="926">`dns_rejected_lexical_hits.csv`</text>
  <text class="body" x="732" y="948">DNS now runs after lexical prefiltering.</text>

  <rect class="output" x="1028" y="840" width="290" height="132"/>
  <text class="label" x="1050" y="876">Stage 1 Output</text>
  <text class="body" x="1050" y="904">`output/holdout.csv`</text>
  <text class="body" x="1050" y="926">`output/hash_review_queue.csv`</text>
  <text class="body" x="1050" y="948">Only fetched-like rows survive into holdout.</text>

  <rect class="policy" x="1356" y="840" width="522" height="132"/>
  <text class="label" x="1378" y="876">Key Rule</text>
  <text class="body" x="1378" y="904">Failed and timed-out rows stay auditable, but they do not continue into final classification.</text>
  <text class="body" x="1378" y="926">`fetched_visual_missing` continues with CPU evidence and reduced visual support.</text>

  <rect class="laneB" x="42" y="620" width="1876" height="392" opacity="0"/>

  <rect class="laneC" x="42" y="1020" width="1876" height="256"/>
  <text class="laneTitle" x="70" y="1060">Stage 2: Validation, Infra Enrichment, and Supporting Models</text>
  <text class="laneNote" x="70" y="1086">Only rows with `fetch_status in {fetched, fetched_visual_missing}` are eligible here. Parked and stale failed rows are blocked.</text>

  <rect class="box" x="82" y="1124" width="348" height="126"/>
  <rect class="chipBlue" x="102" y="1142" width="118" height="24"/>
  <text class="chipText" x="120" y="1158">Eligibility</text>
  <text class="label" x="102" y="1194">Classifier Input Gate</text>
  <text class="body" x="102" y="1222">Allow only `fetched` and `fetched_visual_missing`.</text>
  <text class="body" x="102" y="1244">Skip stale failed rows even from reused holdouts.</text>

  <rect class="box" x="468" y="1124" width="334" height="126"/>
  <rect class="chipBlue" x="488" y="1142" width="110" height="24"/>
  <text class="chipText" x="506" y="1158">OCR / TVC</text>
  <text class="label" x="488" y="1194">Visual Validation</text>
  <text class="body" x="488" y="1222">Uses screenshot if it exists.</text>
  <text class="body" x="488" y="1244">Safe no-op for `fetched_visual_missing` rows.</text>

  <rect class="box" x="840" y="1124" width="332" height="126"/>
  <rect class="chipBlue" x="860" y="1142" width="118" height="24"/>
  <text class="chipText" x="878" y="1158">Enrichment</text>
  <text class="label" x="860" y="1194">Infra Context</text>
  <text class="body" x="860" y="1222">DNS records, GeoIP, RDAP/WHOIS, hosting IP, ISP, country.</text>
  <text class="body" x="860" y="1244">Used as corroboration, not as the only anchor.</text>

  <rect class="box" x="1210" y="1124" width="334" height="126"/>
  <rect class="chipBlue" x="1230" y="1142" width="136" height="24"/>
  <text class="chipText" x="1248" y="1158">Model Check</text>
  <text class="label" x="1230" y="1194">Supporting Models</text>
  <text class="body" x="1230" y="1222">Brand/CSE model + target-domain model</text>
  <text class="body" x="1230" y="1244">Agreement and runtime health logged in debug CSVs.</text>

  <rect class="debug" x="1582" y="1124" width="296" height="126"/>
  <text class="label" x="1604" y="1160">Validation Debug</text>
  <text class="body" x="1604" y="1188">`stage2_model_debug.csv`</text>
  <text class="body" x="1604" y="1210">`stage3_classification_debug.csv`</text>
  <text class="body" x="1604" y="1232">Feature status, model agreement, final evidence trace.</text>

  <rect class="laneD" x="42" y="1308" width="1876" height="194"/>
  <text class="laneTitle" x="70" y="1348">Stage 3: Hybrid Classification and Deliverables</text>
  <text class="laneNote" x="70" y="1374">Final labels are driven by lexical evidence plus corroboration, with safer treatment of missing visual evidence and strict blocking of failed fetches.</text>

  <rect class="box" x="82" y="1398" width="558" height="78"/>
  <text class="label" x="104" y="1430">Hybrid Final Label</text>
  <text class="body" x="104" y="1454">`Phishing` = lexical + strong corroboration + suspicious mismatch</text>
  <text class="body" x="104" y="1472">`Suspected` = weaker corroboration / suspicious infra / partial support</text>

  <rect class="output" x="680" y="1398" width="252" height="78"/>
  <text class="label" x="702" y="1430">Final CSV</text>
  <text class="body" x="702" y="1454">`output/output_file.csv`</text>
  <text class="body" x="702" y="1472">Only classified eligible rows appear here.</text>

  <rect class="output" x="970" y="1398" width="252" height="78"/>
  <text class="label" x="992" y="1430">Evidence PDFs</text>
  <text class="body" x="992" y="1454">Created for phishing rows</text>
  <text class="body" x="992" y="1472">after final classification.</text>

  <rect class="output" x="1260" y="1398" width="292" height="78"/>
  <text class="label" x="1282" y="1430">Submission Package</text>
  <text class="body" x="1282" y="1454">Mapped Excel + evidence bundle</text>
  <text class="body" x="1282" y="1472">for delivery and archiving.</text>

  <rect class="policy" x="1590" y="1398" width="288" height="78"/>
  <text class="label" x="1612" y="1430">Policy Reminder</text>
  <text class="body" x="1612" y="1454">No failed or timed-out row should reach</text>
  <text class="body" x="1612" y="1472">final output under the current design.</text>

  <path class="arrow" marker-end="url(#arrowHead)" d="M324 352 L362 352"/>
  <path class="arrow" marker-end="url(#arrowHead)" d="M644 364 L682 364"/>
  <path class="arrow" marker-end="url(#arrowHead)" d="M984 364 L1022 364"/>
  <path class="arrow" marker-end="url(#arrowHead)" d="M1274 364 L1312 364"/>

  <path class="arrow" marker-end="url(#arrowHead)" d="M289 700 L538 700"/>
  <path class="arrow" marker-end="url(#arrowHead)" d="M952 700 L994 700"/>
  <path class="arrow" marker-end="url(#arrowHead)" d="M1326 714 L1368 714"/>

  <path class="arrowDebug" marker-end="url(#arrowHeadDebug)" d="M830 466 L830 840"/>
  <path class="arrowDebug" marker-end="url(#arrowHeadDebug)" d="M1148 434 L850 840"/>
  <path class="arrowDebug" marker-end="url(#arrowHeadDebug)" d="M1160 808 L1170 840"/>

  <path class="arrowReview" marker-end="url(#arrowHeadReview)" d="M1110 808 L532 840"/>
  <path class="arrowReview" marker-end="url(#arrowHeadReview)" d="M1110 792 L1460 840"/>

  <path class="arrow" marker-end="url(#arrowHead)" d="M1174 972 L1174 1124"/>
  <path class="arrow" marker-end="url(#arrowHead)" d="M430 1188 L468 1188"/>
  <path class="arrow" marker-end="url(#arrowHead)" d="M802 1188 L840 1188"/>
  <path class="arrow" marker-end="url(#arrowHead)" d="M1172 1188 L1210 1188"/>
  <path class="arrowDebug" marker-end="url(#arrowHeadDebug)" d="M1544 1188 L1582 1188"/>

  <path class="arrow" marker-end="url(#arrowHead)" d="M1040 1250 L440 1398"/>
  <path class="arrow" marker-end="url(#arrowHead)" d="M1378 1250 L486 1398"/>
  <path class="arrow" marker-end="url(#arrowHead)" d="M640 1438 L680 1438"/>
  <path class="arrow" marker-end="url(#arrowHead)" d="M932 1438 L970 1438"/>
  <path class="arrow" marker-end="url(#arrowHead)" d="M1222 1438 L1260 1438"/>
  <path class="arrowSoft" marker-end="url(#arrowHeadSoft)" d="M316 912 L316 1032 L194 1032 L194 1188 L82 1188"/>

  <rect class="boxSoft" x="1478" y="286" width="362" height="96" opacity="0"/>

  <rect class="box" x="1506" y="74" width="360" height="54" fill="#ffffff" opacity="0.08" stroke="#e2efea" stroke-width="1.2" rx="18"/>
  <text class="legend" x="1528" y="98" fill="#eef8f3">Flow emphasis:</text>
  <text class="legend" x="1636" y="98" fill="#eef8f3">accuracy, stable fetch, and auditable exclusions</text>
  <text class="legend" x="1528" y="118" fill="#eef8f3">Not optimized for maximum browser throughput.</text>
</svg>
